<svg width="270" height="180" xmlns="http://www.w3.org/2000/svg" fill-rule="evenodd">

 <g>
  <title>Layer 1</title>
  <g id="svg_1">
   <path id="svg_2" fill="#ffffff" d="m6.86386,143.4898c0,0 -3.456,-17.568 9.648,-31.68c13.104,-14.112 52.632,-6.84 59.184,10.368c6.552,17.208 -68.832,21.312 -68.832,21.312z"/>
   <path id="svg_3" fill="#ffffff" d="m103.05586,166.0978c52.488,0 95.472,-10.872 95.472,-24.12c0,-13.32 -42.984,-24.12 -95.472,-24.12c-52.632,0 -95.544,10.8 -95.544,24.12c0,13.248 42.912,24.12 95.544,24.12z"/>
   <path id="svg_4" fill="#009240" d="m102.62386,118.5058c16.128,0.648 66.888,6.84 66.672,24.696c-0.288,19.296 -49.464,23.4 -66.672,23.688l0,-0.72c16.056,-0.216 64.44,-4.32 64.728,-22.68c0.216,-18.432 -48.456,-23.544 -64.728,-24.12l0,-0.864zm-2.808,48.384c-14.256,-0.36 -64.08,-3.384 -63.864,-24.048c0.288,-20.16 50.256,-24.552 64.512,-24.408c0.648,0 1.368,0 2.16,0.072l0,0.864c-0.792,0 -1.512,0 -2.16,-0.072c-13.68,-0.072 -62.424,4.248 -62.64,23.544c-0.144,16.344 38.664,23.544 62.784,23.328c0.576,0 1.296,0 2.016,0l0,0.72c-1.08,0 -2.016,0 -2.808,0z"/>
   <path id="svg_5" fill="#009fe0" d="m100.53586,118.4338c15.84,0.216 48.456,8.496 48.312,24.12c0.072,18.648 -35.352,24.624 -48.312,24.912l0,-0.864c28.224,-1.728 47.736,-12.96 47.232,-23.976c-0.504,-11.16 -21.168,-22.104 -47.232,-22.896l0,-1.296zm-0.864,49.032c-12.6,0 -47.664,-5.832 -47.448,-24.768c0.216,-18.936 35.424,-24.408 48.024,-24.264l0.288,0l0,1.296l-0.288,-0.072c-5.328,-0.144 -46.728,2.088 -46.944,23.04c-0.216,18.216 34.344,23.76 46.44,23.904c0.288,0 0.504,0 0.792,0l0,0.864c-0.288,0 -0.576,0 -0.864,0z"/>
   <path id="svg_6" fill="#2c2c2b" d="m102.91186,118.4338c18.792,0.648 56.088,8.856 55.872,24.12c0.144,18.144 -39.888,24.264 -55.872,24.84l0,-0.864c31.824,-1.944 55.152,-13.032 54.576,-23.904c-0.504,-10.944 -25.128,-21.744 -54.576,-22.896l0,-1.296zm-2.376,49.032c-14.544,0 -54.072,-5.832 -53.784,-24.768c0.216,-18.936 39.888,-24.408 54.432,-24.264c0.576,0 1.152,0 1.728,0l0,1.296c-0.576,0 -1.152,0 -1.728,-0.072c-6.12,-0.144 -52.704,2.088 -52.992,23.04c-0.216,18.216 38.448,23.76 52.344,23.904c0.792,0 1.584,-0.072 2.376,-0.072l0,0.864c-0.864,0.072 -1.656,0.072 -2.376,0.072z"/>
   <path id="svg_7" fill="#ef7e20" d="m102.19186,117.4978c19.08,0.576 80.856,6.912 80.568,25.416c-0.288,20.16 -59.976,24.192 -80.568,24.408l0,-0.72c19.152,-0.144 76.968,-4.176 77.256,-23.328c0.36,-19.224 -57.96,-24.336 -77.256,-24.768l0,-1.008zm-2.736,49.896c-17.856,-0.432 -78.12,-3.528 -77.76,-24.768c0.36,-20.736 60.696,-25.272 78.624,-25.128c0.576,0 1.224,0 1.872,0l0,1.008c-0.648,-0.072 -1.296,-0.072 -1.872,-0.072c-17.136,-0.144 -75.168,4.32 -75.456,24.192c-0.144,16.776 45.36,24.192 75.672,23.976c0.504,0 1.08,0 1.656,0l0,0.72c-1.008,0.072 -1.944,0.072 -2.736,0.072z"/>
   <path id="svg_8" fill="#e21c2a" d="m104.27986,117.2098c25.632,0.576 96.984,7.488 96.768,25.056c-0.288,17.784 -68.544,25.416 -96.768,26.136l0,-0.576c21.456,-1.08 91.728,-6.984 92.016,-24.912c0.216,-18.576 -70.2,-23.976 -92.016,-24.768l0,-0.936zm-4.032,51.192c-17.64,0 -93.96,-7.416 -93.672,-27c0.36,-20.952 77.976,-24.408 93.528,-24.264c1.224,0 2.592,0 4.176,0.072l0,0.936c-1.728,-0.072 -3.096,-0.072 -4.176,-0.072c-14.76,-0.144 -87.624,3.312 -87.912,23.328c-0.432,19.656 68.184,26.712 86.76,26.64c0.936,0 2.808,-0.072 5.328,-0.216l0,0.576c-1.44,0 -2.808,0 -4.032,0z"/>
   <path id="svg_9" fill="#97c124" d="m116.23186,172.2178c19.152,-9 27.36,-31.896 18.288,-51.048c-9.072,-19.224 -31.896,-27.432 -51.048,-18.36c-19.224,9.072 -27.432,31.968 -18.36,51.12c9.072,19.152 31.968,27.36 51.12,18.288z"/>
   <path id="svg_10" fill="#ffffff" d="m83.03986,139.1698c17.64,-21.24 54.864,0.72 41.904,27.432c-11.016,10.872 -30.456,11.088 -39.6,6.48c-0.288,-0.144 27.144,1.224 31.392,-11.304c7.272,-21.6 -15.912,-34.992 -33.696,-22.608z"/>
   <path id="svg_11" fill="#ffffff" d="m83.03986,139.6738c7.848,-4.176 19.728,0.72 23.472,7.344c4.104,7.488 1.368,25.272 -21.096,26.064c-1.728,-0.504 -8.496,-4.032 -11.448,-7.128c16.488,1.944 25.488,-7.92 24.408,-15.12c-1.008,-7.2 -8.928,-12.672 -15.336,-11.16z"/>
   <path id="svg_12" fill="#ffffff" d="m83.47186,139.4578c10.224,2.736 10.296,16.848 -0.648,20.952c-3.744,1.368 -9.288,2.16 -13.104,1.008c-12.6,-15.984 -7.344,-31.752 -7.344,-32.256c-4.464,33.984 25.2,26.064 21.096,10.296z"/>
   <path id="svg_13" fill="#ffffff" d="m83.32786,139.3138c-5.472,-43.56 8.064,-86.544 29.232,-89.064c21.096,-2.592 29.592,15.048 72.864,12.888c43.272,-2.232 66.672,-50.4 66.672,-50.4c0,0 -1.368,31.392 -22.032,46.44l7.128,1.728c0,0 -9.576,16.704 -14.328,17.928c-4.752,1.152 -11.88,-0.648 -11.88,-0.648l8.568,4.824l-13.968,12.24l-7.704,-2.16l3.096,6.048c0,0 -13.824,10.656 -29.88,10.008c-16.128,-0.576 -55.656,-13.104 -62.784,-7.128c-8.64,1.224 -23.184,20.088 -24.984,37.296z"/>
   <path id="svg_14" fill="#9fdcf5" d="m249.86386,10.5058l0.504,-0.504c0.072,0.864 0.072,1.656 0.072,2.52l0,4.536c-0.36,17.712 -4.752,34.344 -18.288,42.552c2.88,-0.144 4.752,0.36 7.632,0.144c-4.032,6.768 -8.496,13.176 -13.752,18.504c-2.016,2.016 -6.912,2.736 -10.008,2.088c2.16,1.008 3.816,1.872 6.048,2.448c-5.4,5.76 -11.016,10.872 -17.136,15.192c-2.088,-1.08 -4.104,-2.232 -5.976,-3.816c1.008,1.944 2.16,3.816 3.24,5.688c-12.816,8.208 -24.336,10.944 -36.216,10.944l0,-4.896c11.232,0.936 22.32,-0.504 33.48,-7.488c-1.656,-2.88 -4.248,-7.416 -5.76,-10.44c2.664,2.592 6.768,5.256 10.368,4.824c5.904,-0.72 9.504,-4.464 14.112,-9.144l-12.024,-6.984c4.752,0.792 13.752,0.792 18.072,-1.584c4.32,-2.304 8.568,-9.288 11.592,-13.968l-12.96,-0.72c16.776,-8.496 27.36,-25.2 27,-47.016c-8.784,16.632 -21.888,34.704 -38.736,42.768c-14.904,7.056 -29.88,7.128 -45.144,5.472l0,-1.512c15.12,1.656 29.952,1.656 44.712,-5.4c17.28,-8.28 30.672,-26.856 39.168,-44.208zm-83.88,100.296c-10.44,0 -21.096,-2.088 -33.048,-4.464c-24.984,-4.968 -39.312,-0.144 -49.392,33.696l-1.152,-0.216c0,-0.144 -6.84,-54.576 7.704,-73.656c13.536,-17.856 15.552,-14.184 52.272,-9.288c7.92,1.008 15.768,2.376 23.616,3.24l0,1.512c-7.848,-0.864 -15.768,-2.16 -23.76,-3.24c-36.144,-4.752 -38.088,-8.496 -51.264,8.856c-12.096,15.912 -8.568,58.68 -7.632,69.552c7.272,-33.12 20.304,-43.128 45.72,-38.16c12.6,2.52 24.84,6.264 36.936,7.272l0,4.896z"/>
   <path id="svg_15" fill="#273785" d="m80.87986,130.1698c-5.256,-24.12 1.224,-93.096 42.696,-83.232c25.704,6.12 58.752,14.184 83.952,4.32c19.584,-7.632 36.432,-21.96 43.704,-45.864c6.624,21.024 -20.808,48.6 -39.96,56.52c-35.352,14.544 -78.912,-3.6 -86.112,-5.328c-44.784,-10.728 -40.176,82.512 -40.104,82.8c-0.216,1.296 -2.232,1.584 -3.168,0.864c-9.144,-22.104 -21.456,-28.656 -36.072,-31.896c-14.616,-3.312 -38.16,7.992 -39.24,33.552c-3.096,-16.128 3.096,-31.176 20.52,-38.448c17.424,-7.2 49.968,0.648 53.784,26.712z"/>
  </g>
 </g>
</svg>